<?xml version="1.0" ?><!DOCTYPE svg  PUBLIC '-//W3C//DTD SVG 1.1//EN'  'http://www.w3.org/Graphics/SVG/1.1/DTD/svg11.dtd'><svg enable-background="new 0 0 200 200" height="200px" id="Слой_1" version="1.1" viewBox="0 0 200 200" width="200px" xml:space="preserve" xmlns="http://www.w3.org/2000/svg" xmlns:xlink="http://www.w3.org/1999/xlink"><g><g><rect clip-rule="evenodd" fill-rule="evenodd" height="39.962" width="6" x="98.026" y="117.058"/><g><path d="M149.198,120.059H52.854c-11.725,0-21.264-9.539-21.264-21.265V68.146c0-11.726,9.539-21.265,21.264-21.265h96.343     c11.725,0,21.264,9.539,21.264,21.265v30.647C170.462,110.52,160.923,120.059,149.198,120.059z M52.854,52.882     c-8.416,0-15.264,6.848-15.264,15.265v30.647c0,8.417,6.848,15.265,15.264,15.265h96.343c8.417,0,15.264-6.848,15.264-15.265     V68.146c0-8.417-6.848-15.265-15.264-15.265H52.854z"/></g></g><g><path d="M69.987,92.172c-0.798-3.492-2.25-5.763-4.423-6.904c3.695-1.618,5.869-4.88,5.869-8.9c0-2.827-1.023-5.286-2.877-6.922    c-2.25-2.036-5.432-2.944-10.315-2.944c-3.19,0-6.423,0.271-8.646,0.727l-0.4,0.082v34.941h5.452V87.307h3.678    c3.783,0.144,5.468,1.795,6.441,6.315c1.135,5.02,1.818,7.447,2.358,8.379l0.144,0.25h5.731l-0.396-0.737    C71.9,100.212,71.039,96.668,69.987,92.172z M65.98,76.879c0,3.676-2.857,6.051-7.279,6.051h-4.055V71.233    c0.766-0.159,2.093-0.304,3.898-0.304C61.937,70.968,65.98,72.03,65.98,76.879z"/><polygon points="82.177,86.079 95.585,86.079 95.585,81.394 82.177,81.394 82.177,71.493 96.353,71.493 96.353,66.757     76.724,66.757 76.724,102.251 97.121,102.251 97.121,97.515 82.177,97.515   "/><path d="M123.6,81.689c0,4.227,0.061,7.961,0.329,11.869c-1.46-2.925-3.17-5.927-5.189-9.117l-11.201-17.685h-5.637v35.494h5.196    V87.012c0-4.869-0.073-8.565-0.248-12.192c1.412,2.804,3.214,5.938,5.568,9.694l11.099,17.737h5.281V66.757H123.6V81.689z"/><polygon points="131.632,66.757 131.632,71.544 142.123,71.544 142.123,102.251 147.627,102.251 147.627,71.544 158.17,71.544     158.17,66.757   "/></g></g></svg>