<?xml version="1.0" ?><!DOCTYPE svg  PUBLIC '-//W3C//DTD SVG 1.1//EN'  'http://www.w3.org/Graphics/SVG/1.1/DTD/svg11.dtd'><svg enable-background="new 0 0 512 512" height="512px" id="Layer_1" version="1.1" viewBox="0 0 512 512" width="512px" xml:space="preserve" xmlns="http://www.w3.org/2000/svg" xmlns:xlink="http://www.w3.org/1999/xlink"><g><path d="M507.016,260.625L432,195.594V94.297c0-7.891-6.391-14.281-14.281-14.281h-35.438   c-7.892,0-14.281,6.391-14.281,14.281v45.828L266,51.719c-5.688-4.953-14.313-4.953-20,0L4.984,260.625   c-6.172,5.359-6.672,14.531-1.141,20.5l16.719,18.047c5.531,5.984,15,6.484,21.172,1.125L48,294.859V448c0,17.673,14.327,32,32,32   h352c0.002,0,0.003,0,0.005,0C449.68,480,464,465.675,464,448V294.859l6.266,5.438c6.172,5.359,15.642,4.859,21.172-1.125   l16.72-18.047C513.688,275.156,513.188,265.984,507.016,260.625z M432,440c0,4.418-3.582,8-8,8H88c-4.418,0-8-3.582-8-8V267.125   l176-152.563l176,152.563V440z M192,258v12c0,1.094-0.906,2-2,2h-14v30c0,1.094-0.906,2-2,2h-12c-1.094,0-2-0.906-2-2v-76   c0-1.094,0.906-2,2-2h44c1.094,0,2,0.906,2,2v12c0,1.094-0.906,2-2,2h-30v16h14C191.094,256,192,256.906,192,258z M288,264   c0-22.094-14.328-40-32-40s-32,17.906-32,40s14.328,40,32,40S288,286.094,288,264z M256,288c-8.531,0-16-11.219-16-24   s7.469-24,16-24s16,11.219,16,24S264.531,288,256,288z M384,338v12c0,1.094-0.906,2-2,2h-30v16h14c1.094,0,2,0.906,2,2v12   c0,1.094-0.906,2-2,2h-14v16h30c1.094,0,2,0.906,2,2v12c0,1.094-0.906,2-2,2h-44c-1.094,0-2-0.906-2-2v-76c0-1.094,0.906-2,2-2h44   C383.094,336,384,336.906,384,338z M320,402.125v11.75c0,1.172-0.953,2.125-2.125,2.125h-43.75c-1.172,0-2.125-0.953-2.125-2.125   v-75.75c0-1.172,0.953-2.125,2.125-2.125h11.75c1.172,0,2.125,0.953,2.125,2.125V400h29.875C319.047,400,320,400.953,320,402.125z    M176,338.125v11.75c0,1.172-0.953,2.125-2.125,2.125H152c-4.406,0-8,4-8,8c0,11.75,32,6.5,32,32c0,5.25-2.406,11.75-6.234,16   c-4.391,4.875-10.688,8-17.766,8h-21.875c-1.172,0-2.125-0.953-2.125-2.125v-11.75c0-1.172,0.953-2.125,2.125-2.125H152   c4.406,0,8-4.25,8-8c0-12-32-8.25-32-32c0-13,10.75-24,24-24h21.875C175.047,336,176,336.953,176,338.125z M233.922,336h-19.469   c-0.969,0-1.813,0.656-2.047,1.594l-19.719,75.75c-0.156,0.625-0.031,1.313,0.375,1.828c0.406,0.516,1.032,0.828,1.688,0.828   h11.594c0.969,0,1.813-0.656,2.063-1.609L212,400h24l3.594,14.391c0.234,0.953,1.094,1.609,2.063,1.609h11.938   c0.656,0,1.281-0.313,1.688-0.828c0.407-0.515,0.531-1.188,0.375-1.828l-19.688-75.75C235.734,336.656,234.891,336,233.922,336z    M216,384.016L224,352l8,32.016H216z M350,304c0.672,0,1.297-0.344,1.672-0.891c0.359-0.547,0.438-1.267,0.188-1.875   l-10.392-30.344C347.594,268.656,352,262.906,352,256v-16c0-8.844-7.156-16-16-16h-30c-1.094,0-2,0.906-2,2v76c0,1.094,0.906,2,2,2   h12c1.094,0,2-0.906,2-2v-30c1.75,0,3.469,0,5.203-0.031l10.203,30.75c0.313,0.781,1.047,1.281,1.875,1.281H350z M336,252.375   c0,2-1.625,3.625-3.625,3.625H320v-16h12.375c2,0,3.625,1.625,3.625,3.625V252.375z" fill="#4D4D4D"/></g></svg>