<?xml version="1.0" ?><!DOCTYPE svg  PUBLIC '-//W3C//DTD SVG 1.1//EN'  'http://www.w3.org/Graphics/SVG/1.1/DTD/svg11.dtd'><svg enable-background="new 0 0 512 512" height="512px" id="Layer_1" version="1.1" viewBox="0 0 512 512" width="512px" xml:space="preserve" xmlns="http://www.w3.org/2000/svg" xmlns:xlink="http://www.w3.org/1999/xlink"><g id="account_x5F_settings"><path d="M350.005,489.327l0.09-3.801l-9.24-4.047l-2.78,2.653c-4.266,4.068-9.923,6.31-15.93,6.31   c-5.566,0-10.91-1.966-15.048-5.535l-0.534-0.461l-21.276-22.165l-0.44-0.555c-7.319-9.229-6.377-22.824,2.146-30.952l2.7-2.576   l-3.745-9.586l-3.893-0.091c-11.551-0.275-21.324-9.125-22.74-20.585c-0.044-0.354-1.063-8.732-0.86-17.402   c0.195-8.282,1.443-15.943,1.496-16.265c1.841-11.18,11.78-19.608,23.121-19.608c0.178,0,0.356,0.002,0.535,0.006l3.734,0.088   l4.224-9.711l-2.662-2.79c-8.099-8.489-8.439-22.097-0.776-30.979l0.461-0.534l22.166-21.275l0.555-0.439   c0.523-0.415,1.065-0.802,1.622-1.168c-0.158-2.659,0.029-5.492,0.429-8.537c19.178-17.535,25.755-54.249,28.494-72.881   c14.794-7.672,18.083-20.823,20.823-36.715c2.74-15.891-0.548-15.891-2.74-15.891l-3.944,0.175c1.75-4.667,2.4-12.798,1.452-22.701   c6.721-68.633-39.666-86.234-53.294-86.245c-15.556-10.517-53.406-28.691-102.017-11.235   c-69.384,24.913-49.021,107.961-49.019,107.969c0.024,6.327,0.672,10.919,1.654,12.943c0,0-1.811-0.44-4.157-0.359   c-6.047,0.212-7.124,3.835-5.479,15.891c1.643,12.056,10.411,30.139,23.015,37.261c5.479,30.688,21.918,63.017,31.234,72.058   c1.643,29.865-16.44,32.605-71.784,46.305c-55.344,13.699-73.284,31.201-87.127,52.606c-10.037,15.521-7.672,66.854-2.74,73.976   c4.932,7.124,86.58,55.893,218.092,55.893c35.525,0,67.002-3.282,94.202-8.252C350.021,489.854,349.999,489.592,350.005,489.327z" /><path d="M474.578,342.76c-1.738-3.627-0.78-8.864,2.129-11.641l5.185-4.946c2.91-2.776,3.259-7.636,0.779-10.801   l-20.172-21.266c-3.03-2.644-7.889-2.537-10.799,0.239l-5.162,4.924c-2.91,2.776-8.176,3.468-11.703,1.536l-14.427-6.385   c-3.792-1.339-6.817-5.725-6.722-9.744l0.168-7.145c0.095-4.019-3.073-7.855-7.04-8.521c0,0-7.171-1.206-14.669-1.382   c-7.498-0.176-14.717,0.691-14.717,0.691c-3.993,0.481-7.336,4.162-7.431,8.182l-0.168,7.145c-0.095,4.019-3.321,8.258-7.172,9.418   l-14.71,5.702c-3.615,1.763-8.842,0.826-11.618-2.083l-4.924-5.162c-2.776-2.91-7.625-3.245-10.775-0.746l-21.147,20.298   c-2.627,3.045-2.504,7.916,0.272,10.825l4.946,5.185c2.776,2.91,3.488,8.186,1.582,11.727l-6.211,14.282   c-1.317,3.8-5.683,6.831-9.704,6.736l-7.119-0.167c-4.019-0.095-7.845,3.075-8.498,7.043c0,0-1.128,6.853-1.301,14.181   c-0.179,7.671,0.751,15.21,0.751,15.21c0.493,3.991,4.185,7.333,8.205,7.429l7.17,0.169c4.019,0.095,8.271,3.317,9.445,7.164   l5.56,14.232c1.767,3.612,0.834,8.838-2.076,11.615l-5.162,4.924c-2.91,2.776-3.245,7.625-0.746,10.775l20.298,21.146   c3.045,2.627,7.916,2.504,10.826-0.272l5.185-4.946c2.91-2.776,8.185-3.485,11.724-1.574l13.811,6.049   c3.794,1.33,6.822,5.708,6.728,9.73l-0.168,7.145c-0.095,4.019,3.073,7.855,7.04,8.521c0,0,7.171,1.206,14.669,1.382   c7.498,0.176,14.719-0.692,14.719-0.692c3.993-0.481,7.336-4.162,7.431-8.182l0.168-7.145c0.095-4.019,3.324-8.252,7.178-9.404   l14.078-5.395c3.624-1.742,8.861-0.787,11.637,2.122l4.946,5.185c2.776,2.91,7.636,3.259,10.801,0.779l21.266-20.172   c2.644-3.03,2.537-7.889-0.239-10.799l-4.924-5.162c-2.776-2.91-3.463-8.174-1.529-11.698l6.221-13.957   c1.353-3.786,5.75-6.807,9.771-6.713l7.17,0.169c4.019,0.095,7.866-3.071,8.544-7.035c0,0,1.284-7.488,1.463-15.159   c0.172-7.327-0.635-14.226-0.635-14.226c-0.466-3.994-4.138-7.339-8.158-7.433l-7.119-0.167c-4.019-0.095-8.241-3.327-9.378-7.184   L474.578,342.76z M387.96,446.021c-34.414-0.808-61.757-29.462-60.95-63.878c0.808-34.414,29.463-61.758,63.878-60.95   c34.416,0.808,61.758,29.463,60.95,63.878C451.03,419.487,422.376,446.83,387.96,446.021z" /></g></svg>