<?xml version="1.0" ?><svg id="Layer_1" style="enable-background:new 0 0 64 64;" version="1.1" viewBox="0 0 64 64" xml:space="preserve" xmlns="http://www.w3.org/2000/svg" xmlns:xlink="http://www.w3.org/1999/xlink"><style type="text/css">
	
</style><g><path class="st3" d="M41.3,24c0-0.5-0.2-1.1-0.7-1.2c-0.3-0.1-0.5,0-0.6-0.2c-0.1-0.2,0-0.6,0.1-0.7c0-0.4,0.1-0.8,0.2-1.2   c0.2-0.7,0.3-1.5,0.3-2.3c0.1-2.4-1.1-4.3-3.2-5.3c-0.2-0.1-0.5-0.2-0.7-0.3c-1.4-0.5-2.8-0.8-4.3-0.8c-0.3,0-0.6,0-1,0   c-1,0.1-2.1,0.1-3.1,0.6c-0.1,0-0.2,0.1-0.3,0.2c-0.3,0.2-0.6,0.5-0.9,0.9c-0.2,0.4-0.3,0.6-0.7,0.8c-0.3,0.2-0.6,0.4-0.9,0.6   c-0.3,0.1-0.6,0.3-0.7,0.6c-0.3,0.6-0.5,1.3-0.5,2c0,0.8,0,1.7,0.1,2.5c0,0.3,0.1,0.6,0.1,0.9c0.1,0.5,0.2,0.9,0.2,1.4   c0,0.1-0.1,0.2-0.2,0.3c0,0-0.1,0-0.1,0c-0.2,0-0.3,0-0.5,0.1c-0.5,0.1-0.8,0.7-0.7,1.2c0,0,0,0.1,0,0.1c0,0.2,0,0.4,0,0.6   c0,0.4,0.1,0.9,0.2,1.3c0.1,1,0.6,1.9,1.5,2.3c0.2,0.2,0.3,0.3,0.4,0.6c0.6,2.1,1.6,3.9,3.4,5.1c0.2,0.1,0.4,0.3,0.7,0.4   c0.3,0.1,0.7,0.3,1.1,0.5c0,0,0.1,0,0.1,0c0.3,0.1,0.6,0.2,0.9,0.3c0.3,0.1,0.6,0.1,0.8,0.1c0.3,0,0.6,0,0.8-0.1   c0.3-0.1,0.6-0.1,0.9-0.3c0,0,0.1,0,0.1,0c0.5-0.2,0.9-0.3,1.2-0.5c0.2-0.1,0.5-0.3,0.7-0.4c0.9-0.6,1.7-1.4,2.2-2.4   c0.3-0.5,0.5-1,0.7-1.5c0.2-0.5,0.2-1.1,0.5-1.5c0.3-0.3,0.6-0.6,0.9-0.8c0.5-0.5,0.7-1.1,0.8-1.8c0.1-0.4,0.1-0.9,0.2-1.3   C41.3,24.5,41.3,24.3,41.3,24C41.3,24.1,41.3,24,41.3,24z"/><path class="st3" d="M47.1,40.2l-6.4-2.4c-0.5-0.1-1-0.2-1.5-0.4c-0.2,0-0.3-0.1-0.5-0.1c-0.1,0-0.3,0-0.5,0c0,0.1-0.1,0.2-0.1,0.3   c-0.4,1.6-0.8,3.2-1.3,4.7c-0.6,1.8-1.2,3.7-1.8,5.5c0,0,0,0,0,0.1c-0.1,0.2-0.2,0.4-0.3,0.6c-0.1-0.8-0.3-1.9-0.4-3   c-0.3-2-0.5-4-0.5-4c0.1-0.2,0.2-0.4,0.3-0.7c0,0,0-0.1,0-0.1c0.1-0.1,0.1-0.3,0.2-0.4c0,0,0.1-0.1,0.1-0.2   c0.1-0.2,0.2-0.3,0.2-0.6c0-0.2-0.1-0.3-0.1-0.5l0-0.1c0,0,0,0,0-0.1c0,0,0-0.1-0.1-0.2l0,0c0,0,0,0,0,0c0-0.1-0.1-0.1-0.1-0.1   c-0.1-0.1-0.2-0.1-0.2-0.1h-0.1c0,0-0.1,0-0.1,0c-0.2,0-0.7,0-1.3,0h0h0c-0.6,0-1.1,0-1.3,0c0,0-0.1,0-0.1,0h-0.1   c-0.1,0-0.1,0-0.2,0.1c0,0-0.1,0.1-0.1,0.1c0,0,0,0,0,0l0,0c0,0.1-0.1,0.1-0.1,0.2c0,0,0,0,0,0.1l0,0.1c-0.1,0.1-0.1,0.3-0.1,0.5   c0,0.2,0.1,0.4,0.2,0.6c0,0,0.1,0.1,0.1,0.2c0.1,0.1,0.1,0.3,0.2,0.4c0,0,0,0.1,0,0.1c0.1,0.2,0.2,0.4,0.3,0.7c0,0.1-0.2,2-0.5,4   c-0.1,1.1-0.3,2.2-0.4,3c-0.1-0.2-0.2-0.4-0.3-0.6c0,0,0,0,0-0.1c-0.6-1.8-1.3-3.6-1.8-5.5c-0.5-1.6-0.9-3.1-1.3-4.7   c0-0.1-0.1-0.2-0.1-0.3c-0.2,0-0.4,0-0.5,0c-0.2,0-0.3,0.1-0.5,0.1c-0.5,0.1-1,0.2-1.5,0.4l-6.4,2.4c-3.8,1.3-3.6,3.8-3.6,3.8v5   c0.3,3,2.7,3,2.7,3h15.7H48c0,0,2.4,0.1,2.7-3v-5C50.7,44,50.9,41.5,47.1,40.2z"/><path class="st4" d="M25.2,34.6C25.1,34.6,25.1,34.6,25.2,34.6l-0.6,0.1c-0.5,0.1-0.9,0.2-1.4,0.4l-6.7,2.5   c-3.9,1.3-5.1,3.9-5.4,5.7H3.4C2.6,43.4,1.6,43,1,42c-0.1-0.1-0.2-0.3-0.3-0.5c-0.1-0.3-0.2-0.7-0.3-1.1l0-2.3v-1.2   c0,0,0-0.4,0.2-1c0.2-0.5,0.6-1.2,1.3-1.7c0.5-0.3,1-0.6,1.7-0.9c2.2-0.8,4.7-1.4,6.4-3.2c0.2-0.3,0.8-1.2,0.4-1.6   c-0.3-0.3-1.2,0.2-1.6,0.4c-1.4,0.4-2.8,0.6-4.2,0.3C4,29,2,28.5,3,27.7c0.5-0.4,1-0.8,1.4-1.2c1.2-1.2,2-2.7,2.3-4.5   C6.9,21.5,7,20.9,7,20.3c0.1-1.2,0.2-2.5,0.5-3.7c0.3-1.5,1.1-2.5,2.4-3.3c1.3-0.8,2.8-1.2,4.3-1.2c1.5,0,2.9,0.4,4.3,1.2   c1.2,0.8,2.1,1.8,2.4,3.3c0.3,1.2,0.4,2.5,0.5,3.7c0,0.4,0,0.8,0.1,1.2c-0.6,0.8-0.9,1.8-0.8,2.6c0,0.3,0,0.6,0,0.8   c0,0.4,0.1,0.8,0.1,1.1c0,0.1,0,0.3,0.1,0.4c0.1,1.1,0.6,2.2,1.2,3c-0.8,0-1.6-0.2-2.4-0.4c-0.4-0.1-1.3-0.7-1.6-0.4   c-0.4,0.4,0.2,1.3,0.4,1.6c1.5,1.6,3.7,2.2,5.8,2.9C24.3,33.6,24.7,34.1,25.2,34.6z"/><path class="st4" d="M63.5,36.7l0,3.7c0,0.4-0.1,0.8-0.3,1.2c-0.1,0.2-0.2,0.4-0.3,0.5c-0.6,1-1.7,1.4-2.4,1.4h-7.1   C53.2,41.6,52,39,48,37.6l-6.4-2.4l-0.3-0.1c-0.5-0.1-1-0.2-1.5-0.4c0,0-0.5-0.1-0.5-0.1c0.4-0.5,0.8-1,1.1-1.5   c0.2-0.3,0.4-0.7,0.6-1.1c1-0.4,2.2-0.6,3-1.3c0.4-0.3,0.7-0.7,1.1-1c0.5-0.5,0.6-1.1,0.4-1.8c0-0.1-0.1-0.1-0.1-0.2   c-0.3-0.6-0.8-1.2-1.1-1.8c-0.2-0.6-0.3-1.1-0.4-1.8c0-0.7-0.2-1.4-0.5-2c-0.1-0.3-0.3-0.6-0.4-0.9c-0.1-0.2-0.1-0.5-0.1-0.7   c0-0.1,0-0.2,0-0.3c0.1-0.1,0.2,0,0.3-0.1c0,0,0,0,0.1,0c0.1,0,0.1-0.1,0.1-0.2c0-0.4-0.1-0.7-0.1-1c0-0.2-0.1-0.5-0.1-0.7   c0-0.6-0.1-1.3,0-1.9v0c0-0.5,0.1-1.1,0.4-1.5c0.1-0.2,0.3-0.4,0.6-0.5c0.3-0.1,0.5-0.2,0.7-0.4c0.3-0.2,0.3-0.4,0.5-0.6   c0.2-0.3,0.4-0.5,0.7-0.7c0.1,0,0.1-0.1,0.2-0.1c0.7-0.3,1.6-0.4,2.4-0.5c0.2,0,0.5,0,0.7,0c0.2,0,0.5,0,0.7,0   c0.8,0,1.6,0.1,2.4,0.5c0.1,0,0.1,0.1,0.2,0.1c0.3,0.2,0.5,0.4,0.7,0.7c0.2,0.3,0.2,0.4,0.5,0.6c0.2,0.2,0.4,0.3,0.7,0.4   c0.2,0.1,0.4,0.3,0.6,0.5c0.2,0.4,0.3,1,0.4,1.5v0c0,0.6,0,1.3,0,1.9c0,0.2-0.1,0.5-0.1,0.7c-0.1,0.3-0.1,0.7-0.1,1   c0,0.1,0,0.2,0.1,0.2c0,0,0,0,0.1,0c0.1,0,0.3,0,0.4,0c0.1,0,0.3,0.1,0.4,0.2c0.1,0.2,0.2,0.5,0.2,0.7v0.1c0,0.2,0,0.3,0,0.5   c0,0.3-0.1,0.7-0.1,1c-0.1,0.7-0.4,1.4-1.1,1.8c-0.4,0.2-0.5,1.1-0.7,1.4c-0.3,0.7-0.8,1.2-1.1,1.8c0,0.1-0.1,0.1-0.1,0.2   c-0.2,0.7-0.1,1.3,0.4,1.8c0.3,0.4,0.7,0.7,1.1,1c0.9,0.7,2.2,1,3.3,1.4c0.7,0.3,1.5,0.6,2.2,0.8c0.7,0.2,1.3,0.5,1.8,0.9   c0.8,0.6,1.2,1.3,1.3,1.8C63.6,36.3,63.5,36.7,63.5,36.7z"/></g></svg>